<svg width="20" height="19" viewBox="0 0 20 19" fill="none" xmlns="http://www.w3.org/2000/svg">
<path d="M10.9677 0C10.6114 0 10.3226 0.274406 10.3226 0.612903C10.3226 0.9514 10.6114 1.22581 10.9677 1.22581C15.2435 1.22581 18.7097 4.51868 18.7097 8.58065C18.7097 8.91914 18.9985 9.19355 19.3548 9.19355C19.7112 9.19355 20 8.91914 20 8.58065C20 3.84169 15.9561 0 10.9677 0Z" fill="#E4E5EA"/>
<path d="M2.70912 1.99957C3.07483 1.821 3.71892 1.73049 4.0881 2.05724C4.54956 2.46566 5.26077 3.18162 5.74938 3.80628C6.238 4.43094 6.92205 5.38235 7.01978 5.59378C7.1175 5.8052 7.22608 6.5548 6.73747 7.00648C6.34658 7.36782 5.83625 7.6888 5.62994 7.80412C5.43812 7.96429 5.12396 8.43455 5.40192 9.03423C5.74938 9.78382 6.49859 11.2542 7.7907 12.3497C9.08281 13.4453 10.4509 14.0219 11.3087 14.2045C11.3633 14.2045 11.4333 14.2169 11.5145 14.2312C11.8052 14.2826 12.2383 14.359 12.6117 13.9835C12.9939 13.5991 13.3428 13.1954 13.4695 13.0417C13.6685 12.8367 14.2469 12.4881 14.9679 12.7342C15.8691 13.0417 16.9006 13.7144 17.3675 14.0315C17.741 14.2852 18.5728 14.8868 18.9419 15.1559C19.1663 15.3193 19.5413 15.8056 19.246 16.4437C18.8768 17.2413 17.3024 19 15.8908 19C15.3697 19 10.3315 17.645 5.87968 13.8201C3.03602 11.3769 0.588175 7.13781 0.168329 5.7091C0.00907717 5.36954 -0.17913 4.53281 0.342058 3.90238C0.863246 3.27195 1.4496 2.61462 2.70912 1.99957Z" fill="#E4E5EA"/>
<path d="M10.9677 4.90323C10.6114 4.90323 10.3226 5.17763 10.3226 5.51613C10.3226 5.85463 10.6114 6.12903 10.9677 6.12903C12.393 6.12903 13.5484 7.22666 13.5484 8.58065C13.5484 8.91914 13.8372 9.19355 14.1935 9.19355C14.5499 9.19355 14.8387 8.91914 14.8387 8.58065C14.8387 6.54966 13.1056 4.90323 10.9677 4.90323Z" fill="#E4E5EA"/>
<path d="M10.3226 3.06452C10.3226 2.72602 10.6114 2.45161 10.9677 2.45161C14.5309 2.45161 17.4194 5.19567 17.4194 8.58065C17.4194 8.91914 17.1305 9.19355 16.7742 9.19355C16.4179 9.19355 16.129 8.91914 16.129 8.58065C16.129 5.87267 13.8182 3.67742 10.9677 3.67742C10.6114 3.67742 10.3226 3.40301 10.3226 3.06452Z" fill="#E4E5EA"/>
</svg>
