<svg width="20" height="20" viewBox="0 0 20 20" fill="none" xmlns="http://www.w3.org/2000/svg">
<path fill-rule="evenodd" clip-rule="evenodd" d="M16.8025 3.19097C15.9169 2.30376 14.8632 1.60028 13.7025 1.12127C12.5417 0.642256 11.297 0.397243 10.0405 0.400421C4.7714 0.400421 0.482021 4.66838 0.479891 9.91456C0.479891 11.5912 0.91969 13.2276 1.75563 14.6711L0.400024 19.6004L5.46783 18.2767C6.86965 19.0361 8.44015 19.4344 10.0362 19.4351H10.0405C15.3085 19.4351 19.5979 15.1671 19.6 9.92092C19.6036 8.67083 19.3582 7.43242 18.8781 6.27727C18.3979 5.12212 17.6925 4.07314 16.8025 3.19097ZM10.0405 17.8294H10.0373C8.61407 17.8296 7.21706 17.4485 5.99282 16.7261L5.70317 16.5544L2.69593 17.3398L3.49779 14.422L3.3093 14.1232C2.5136 12.8624 2.09238 11.4034 2.09426 9.91456C2.09639 5.5544 5.66058 2.00713 10.0437 2.00713C11.0875 2.00482 12.1215 2.20859 13.0857 2.60663C14.0499 3.00467 14.9252 3.58908 15.661 4.32605C16.4007 5.0595 16.9869 5.93159 17.386 6.89191C17.785 7.85223 17.9888 8.88173 17.9856 9.92092C17.9835 14.2811 14.4193 17.8294 10.0405 17.8294ZM14.3991 11.906C14.1595 11.7862 12.986 11.2118 12.7666 11.1323C12.5483 11.0528 12.3896 11.0136 12.2299 11.251C12.0701 11.4884 11.6122 12.0236 11.4727 12.1826C11.3332 12.3416 11.1937 12.3607 10.9552 12.242C10.7167 12.1233 9.94676 11.8721 9.03415 11.0624C8.32387 10.4318 7.84467 9.65384 7.70517 9.41538C7.56567 9.17691 7.69026 9.04867 7.81059 8.92997C7.91814 8.82399 8.04913 8.6523 8.16839 8.51346C8.28766 8.37462 8.32706 8.27605 8.40693 8.11708C8.4868 7.9581 8.44739 7.81927 8.3867 7.70056C8.32706 7.5808 7.84893 6.41075 7.64979 5.93488C7.45705 5.47385 7.26004 5.53532 7.11309 5.52896C6.96089 5.52277 6.80857 5.51994 6.65625 5.52048C6.53513 5.52356 6.41594 5.5515 6.30618 5.60257C6.19641 5.65363 6.09843 5.72672 6.01838 5.81724C5.79901 6.0557 5.18244 6.63013 5.18244 7.80019C5.18244 8.97025 6.03861 10.1011 6.15788 10.2601C6.27715 10.419 7.84254 12.8196 10.2385 13.8497C10.8093 14.0945 11.2544 14.2408 11.6005 14.351C12.1724 14.5323 12.6931 14.5058 13.1052 14.4454C13.5642 14.3775 14.5183 13.8709 14.7175 13.3156C14.9166 12.7602 14.9166 12.2844 14.857 12.1847C14.7973 12.0851 14.6365 12.0247 14.3991 11.906Z" fill="#E4E5EA"/>
</svg>
